<svg version="1.1" viewBox="0.0 0.0 800.0 800.0" fill="none" stroke="none" stroke-linecap="square" stroke-miterlimit="10" xmlns:xlink="http://www.w3.org/1999/xlink" xmlns="http://www.w3.org/2000/svg"><clipPath id="p.0"><path d="m0 0l800.0 0l0 800.0l-800.0 0l0 -800.0z" clip-rule="nonzero"/></clipPath><g clip-path="url(#p.0)"><path fill="#000000" fill-opacity="0.0" d="m0 0l800.0 0l0 800.0l-800.0 0z" fill-rule="evenodd"/><path fill="#ffffff" d="m0 0l800.0 0l0 800.0l-800.0 0z" fill-rule="evenodd"/><path fill="#000000" fill-opacity="0.0" d="m297.3071 183.82677l205.3858 0l0 432.34644l-205.3858 0z" fill-rule="evenodd"/><path fill="#000000" d="m338.13727 250.23433q0 -14.421875 -6.859375 -38.109375q26.390625 -14.078125 47.296875 -14.078125q21.78125 0 21.78125 19.109375l-1.046875 89.35939q2.421875 -3.390625 26.578125 -3.390625q24.15625 0 39.84375 16.6875q15.6875 16.671875 15.6875 45.609375l0 171.2031q0 7.171875 1.046875 8.4375q1.046875 1.25 17.734375 1.25q1.140625 29.53125 -10.0 40.28125q-11.140625 10.734375 -31.0 10.734375q-19.84375 0 -29.921875 -12.671875q-10.078125 -12.6875 -10.078125 -37.359375l0 -178.67184q0 -6.484375 -7.03125 -6.484375q-7.953125 0 -11.8125 7.96875l0 167.04684q0 24.390625 5.890625 51.34375q-28.171875 5.640625 -47.9375 5.640625q-20.171875 0 -20.171875 -19.109375l0 -324.79688z" fill-rule="nonzero"/><path fill="#000000" d="m502.6929 504.2362l0 -98.58267l98.58267 98.58267z" fill-rule="evenodd"/><path fill="#000000" d="m601.2756 504.2362l0 -98.58267l98.5827 98.58267z" fill-rule="evenodd"/><path fill="#000000" d="m502.6929 405.65353l0 -98.58267l98.58267 98.58267z" fill-rule="evenodd"/><path fill="#000000" d="m297.3071 498.58267l0 -98.58267l-98.58269 98.58267z" fill-rule="evenodd"/><path fill="#000000" d="m198.72441 498.58267l0 -98.58267l-98.58268 98.58267z" fill-rule="evenodd"/><path fill="#000000" d="m297.3071 400.0l0 -98.58267l-98.58269 98.58267z" fill-rule="evenodd"/></g></svg>